{"title":"Narcopolis.2015.1080p.BluRay.x264.DTS-RARBG","uid":12510564,"size":9044361660,"categoryP":"video","categoryS":"hd___movies","magnet":"?xt=urn:btih:292838c205e4f7ce2d3b15bf2b80e1cc51cb97c3&amp;dn=Narcopolis.2015.1080p.BluRay.x264.DTS-RARBG&amp;tr=udp%3A%2F%2Ftracker.leechers-paradise.org%3A6969&amp;tr=udp%3A%2F%2Fzer0day.ch%3A1337&amp;tr=udp%3A%2F%2Fopen.demonii.com%3A1337&amp;tr=udp%3A%2F%2Ftracker.coppersurfer.tk%3A6969&amp;tr=udp%3A%2F%2Fexodus.desync.com%3A6969","seeders":1,"leechers":0,"uploader":"vickey1992","files":6,"time":1443545719,"description":"Video\r\nID                                       : 1\r\nFormat                                   : AVC\r\nFormat/Info                              : Advanced Video Codec\r\nFormat profile                           :   \r\nFormat settings, CABAC                   : Yes\r\nFormat settings, ReFrames                : 4 frames\r\nCodec ID                                 : V_MPEG4/ISO/AVC\r\nDuration                                 : 1h 35mn\r\nBit rate                                 : 10.8 Mbps\r\nNominal bit rate                         : 11.5 Mbps\r\nWidth                                    : 1 920 pixels\r\nHeight                                   : 800 pixels\r\nDisplay aspect ratio                     : 2.40:1\r\nFrame rate mode                          : Constant\r\nFrame rate                               : 23.976 fps\r\nColor space                              : YUV\r\nChroma subsampling                       : 4:2:0\r\nBit depth                                : 8 bits\r\nScan type                                : Progressive\r\nBits/(Pixel*Frame)                       : 0.294\r\nStream size                              : 7.25 GiB (86%)\r\nTitle                                    : Narcopolis.2015.1080p.BluRay.x264.DTS-RARBG\r\nWriting library                          : x264 core 144 r96 40bb568\r\nEncoding settings                        : cabac=1 / ref=4 / deblock=1:-2:-2 / analyse=0x3:0x113 / me=umh / subme=7 / psy=1 / psy_rd=1.00:0.15 / mixed_ref=1 / me_range=16 / chroma_me=1 / trellis=1 / 8x8dct=1 / cqm=0 / deadzone=21,11 / fast_pskip=1 / chroma_qp_offset=-3 / threads=12 / lookahead_threads=3 / sliced_threads=0 / nr=0 / decimate=1 / interlaced=0 / bluray_compat=0 / constrained_intra=0 / bframes=3 / b_pyramid=2 / b_adapt=2 / b_bias=0 / direct=3 / weightb=1 / open_gop=0 / weightp=2 / keyint=250 / keyint_min=25 / scenecut=40 / intra_refresh=0 / rc_lookahead=50 / rc=abr / mbtree=1 / bitrate=11500 / ratetol=1.0 / qcomp=0.60 / qpmin=0 / qpmax=69 / qpstep=4 / vbv_maxrate=31250 / vbv_bufsize=31250 / nal_hrd=none / filler=0 / ip_ratio=1.40 / aq=1:1.00\r\nLanguage                                 : English\r\nDefault                                  : Yes\r\nForced                                   : No\r\n\r\nAudio\r\nID                                       : 2\r\nFormat                                   : DTS\r\nFormat/Info                              : Digital Theater Systems\r\nMode                                     : 16\r\nFormat settings, Endianness              : Big\r\nCodec ID                                 : A_DTS\r\nDuration                                 : 1h 35mn\r\nBit rate mode                            : Constant\r\nBit rate                                 : 1 509 Kbps\r\nChannel(s)                               : 6 channels\r\nChannel positions                        : Front: L C R, Side: L R, LFE\r\nSampling rate                            : 48.0 KHz\r\nBit depth                                : 16 bits\r\nCompression mode                         : Lossy\r\nStream size                              : 1.01 GiB (12%)\r\nTitle                                    : Narcopolis.2015.1080p.BluRay.x264.DTS-RARBG\r\nLanguage                                 : English\r\nDefault                                  : Yes\r\nForced                                   : No\r\n\r\nText #1\r\nID                                       : 3\r\nFormat                                   : UTF-8\r\nCodec ID                                 : S_TEXT/UTF8\r\nCodec ID/Info                            : UTF-8 Plain Text\r\nLanguage                                 : English\r\nDefault                                  : Yes\r\nForced                                   : No\r\n\r\nText #2\r\nID                                       : 4\r\nFormat                                   : UTF-8\r\nCodec ID                                 : S_TEXT/UTF8\r\nCodec ID/Info                            : UTF-8 Plain Text\r\nTitle                                    : SDH\r\nLanguage                                 : English\r\nDefault                                  : No\r\nForced                                   : No\r\n\r\nMenu\r\n00:00:00.000                             : en:Chapter 01\r\n00:05:15.565                             : en:Chapter 02\r\n00:11:28.312                             : en:Chapter 03\r\n00:17:47.316                             : en:Chapter 04\r\n00:24:54.910                             : en:Chapter 05\r\n00:30:41.756                             : en:Chapter 06\r\n00:36:19.260                             : en:Chapter 07\r\n00:41:12.678                             : en:Chapter 08\r\n00:48:24.735                             : en:Chapter 09\r\n00:55:05.844                             : en:Chapter 10\r\n00:59:59.846                             : en:Chapter 11\r\n01:07:17.074                             : en:Chapter 12\r\n01:14:49.902                             : en:Chapter 13\r\n01:18:12.312                             : en:Chapter 14\r\n01:23:50.984                             : en:Chapter 15\r\n01:30:35.930                             : en:Chapter 16","torrent":{"xt":"urn:btih:292838c205e4f7ce2d3b15bf2b80e1cc51cb97c3","amp;dn":"Narcopolis.2015.1080p.BluRay.x264.DTS-RARBG","amp;tr":["udp%3A%2F%2Ftracker.leechers-paradise.org%3A6969","udp%3A%2F%2Fzer0day.ch%3A1337","udp%3A%2F%2Fopen.demonii.com%3A1337","udp%3A%2F%2Ftracker.coppersurfer.tk%3A6969","udp%3A%2F%2Fexodus.desync.com%3A6969"],"infoHash":"292838c205e4f7ce2d3b15bf2b80e1cc51cb97c3","infoHashBuffer":{"type":"Buffer","data":[41,40,56,194,5,228,247,206,45,59,21,191,43,128,225,204,81,203,151,195]},"announce":[],"urlList":[]}}